Patient4_TMGait_0pt4_01_left_25_EMG.mot
version=1
nRows=26
nColumns=33
inDegrees=no
endheader
time	1LAddLong	2LGlutMax	3LGlutMed	4LIliopsoas	5LSemiMemb	6LBicFemLong	7LRecFem	8LVastMed	9LVastLat	10LGasMed	11LTibAnt	12lTibPost	13LPeroneusLong	14LSol	15LExtDigLong	16LFlexDigLong	17RAddLong	18RGlutMax	19RGlutMed	20RIliopsoas	21RSemiMemb	22RBicFemLong	23RRecFem	24RVastMed	25RVastLat	26RGasMed	27RTibAnt	28RTibPost	29RPeroneusLong	30RSol	31RExtDigLong	32RFlexDigLong
31.573	0.007782	0.39093	0.024719	0.00885	-0.061188	0.020294	-0.041962	0.002136	0.12756	-0.009766	0.000763	0.007324	-0.010834	-0.003052	0.045776	-0.009766	0.004578	-0.05722	-0.23468	-0.037842	-0.001373	-0.00061	-0.036774	-0.046539	-0.27603	-0.001831	-0.16083	-0.002289	-0.036011	-0.003357	-0.001831	-0.007019
31.574	0.007019	0.32074	0.056915	0.00351	-0.069275	0.00473	-0.019531	0.004578	0.12924	-0.015106	0.021667	0.002289	-0.089264	0.009918	0.050507	-0.007477	0.013733	-0.028229	-0.2919	-0.10803	-0.018768	-0.001526	-0.063477	-0.020447	-0.23956	-0.007782	-0.21957	-0.00946	-0.070648	0.12207	-0.005188	-0.002136
31.575	-0.002289	0.32394	-0.011749	0.005951	-0.10986	-0.039825	-0.018158	0.005798	0.11688	-0.014191	-0.00061	-0.006866	-0.10941	0.014954	0.065613	-0.007782	-0.002441	-0.025635	-0.15778	-0.19501	-0.008545	-0.001831	-0.37079	-0.14191	-0.28564	0.00061	-0.32333	-0.001984	-0.38071	0.034943	0.000458	0.000458
31.576	0.007629	0.32303	0.041504	-0.007019	-0.003815	-0.079651	-0.036163	0.004578	0.12192	-0.02533	0.013275	-0.003967	-0.11917	0.016327	0.068359	-0.019989	0.007935	0.053711	0.39536	-0.11627	-0.002899	-0.003052	-0.32425	-0.087128	-0.1973	0.003357	-0.33585	-0.002594	-1.3104	-0.058289	-0.002289	-0.00351
31.577	0.007324	0.37048	0.014801	-0.005493	0.098724	-0.052032	-0.02533	-0.002594	0.13733	-0.019989	0.022278	0.003204	-0.11948	0.011444	0.054626	-0.013123	0.011292	0.093536	0.34378	0.034637	0.006256	-0.016937	-0.17258	-0.0383	-0.041351	-0.004578	-0.090179	-0.001678	-1.1919	0.086975	-0.001068	-0.00351
31.578	0.011749	0.36087	0.011444	-0.003052	0.020905	-0.011292	-0.016174	0.000916	0.13473	-0.026855	0.022583	-0.010681	-0.10941	0.065613	-0.016174	-0.004425	0.009918	0.01358	0.10773	0.16678	0.001373	-0.011292	0.018005	-0.055084	0.006866	-0.002594	0.041656	-0.005188	0.91278	0.12039	0.001526	-0.018311
31.579	0.002594	0.32227	0.018921	0.00351	-0.007019	-0.011749	-0.033569	0.000305	0.12024	-0.044098	0.028992	0.016632	-0.06134	0.030823	-0.024567	-0.01709	0.010986	-0.023651	0.13672	0.23819	0.00885	0.010223	0.063171	-0.014038	0.016174	-0.009155	0.45761	-0.006104	-0.67261	0.18936	-0.001373	-0.013428
31.58	0.004425	0.30716	-0.00824	0.01297	0.024719	-0.019989	-0.026093	-0.001526	0.11597	-0.06485	0.023651	-0.000916	0.023193	0.064392	-0.022583	-0.011292	0.001221	-0.077667	0.16022	0.10101	0.020752	0.007629	0.036774	-0.032043	0.041962	-0.008392	0.31693	-0.001831	0.038605	0.14069	-0.00351	-0.015411
31.581	0.009003	0.32425	-0.056152	0.018768	0.028229	-0.019836	-0.053101	-0.002899	0.12451	-0.084229	0.030212	0.008545	0.013885	0.052338	-0.050049	-0.011749	0.005035	-0.032349	0.14542	0.069275	0.012665	-0.000305	-0.092926	-0.0383	0.074615	-0.002441	-0.019989	-0.001831	0.23911	-0.036621	0.002441	-0.009613
31.582	0.008087	0.30594	-0.095215	0.005493	0.021515	-0.006256	-0.046234	-0.004578	0.12375	-0.087891	-0.018463	-0.002289	0.030212	0.042114	-0.055847	-0.008087	0.004425	-0.02121	-0.17425	0.054169	0.010986	0.001221	-0.10071	-0.13367	0.051575	0	-0.22049	-0.002441	-0.1265	-0.10468	-0.001678	-0.003052
31.583	0.009003	0.25452	-0.10773	-0.018616	0.022736	-0.009918	-0.029907	-0.002136	0.112	-0.088043	-0.001068	0.001678	0.065613	0.023193	-0.048218	-0.013885	0.005646	-0.066833	-0.1796	0.049896	-0.004425	0.019836	-0.080719	-0.095062	0.10147	0.004883	-0.27313	0.003052	0.23895	-0.05661	0.002594	-0.006866
31.584	0.019531	0.20493	-0.068817	-0.019531	-0.00061	0.044861	-0.051117	-0.004883	0.121	-0.025787	0.005341	0.007477	0.056763	-0.018158	-0.036926	-0.022278	0.020447	0.019684	-0.81314	0.096893	-0.030823	0.004272	0.021515	-0.091553	-0.005951	0.003967	-0.14267	-0.000153	-0.092163	-0.16281	-0.004578	-0.010376
31.585	0.011749	0.18265	-0.026855	0.007477	-0.010223	0.031128	-0.046082	-0.007935	0.13596	0.064392	-0.000458	0.004272	0.020905	0.001984	-0.027008	-0.019684	0.026855	0.033722	-1.0283	0.05249	-0.025635	0.03418	-0.000458	-0.11704	-0.10223	-0.007324	0.34698	-0.001373	-0.088043	-0.061188	-0.000763	-0.012512
31.586	0.010071	0.15961	0.056458	0.003967	-0.012817	0.042114	-0.039825	0.00351	0.13657	0.075226	0.009003	0.007782	0.009308	0.001373	-0.019836	-0.02121	0.006256	0.030823	0.066223	0.024261	0.027313	0.050964	-0.16083	-0.094147	-0.15991	-0.015564	0.60913	0.00412	-0.28641	0.005493	-0.001068	-0.016632
31.587	0.000153	0.12116	0.06073	0.010071	-0.01358	0.018158	-0.02655	0.000916	0.13031	0.054932	0.035706	0.009155	-0.016327	0.005493	0.027313	-0.022125	-0.004883	-0.010834	0.56244	0.00473	0.0737	0.02243	0.008698	0.012665	-0.05722	0.002136	0.41901	-0.002899	0.4393	-0.089569	-0.002136	-0.015106
31.588	0.002747	0.07431	0.022278	0.008087	0.007324	0.008087	-0.033112	-0.002899	0.12817	0.02533	0.053406	0.002594	-0.037537	0.004578	0.075836	-0.023193	0.008698	-0.042419	0.2713	0.007629	-0.05188	-0.016785	0.065613	0.011444	0.12085	0.011139	0.42099	-0.001373	0.89966	-0.11124	0	-0.015411
31.589	0.004425	0.044708	-0.019989	0.00351	0.020294	0.026093	-0.037231	-0.000916	0.11597	0.001831	-0.013123	-0.000763	-0.037842	-0.047302	0.040436	-0.019226	0.001984	-0.064392	0.2626	-0.016174	0.031128	-0.054321	-0.21454	0.061035	0.17899	0.003662	-0.22476	-0.001526	0.42175	-0.024872	-0.001678	-0.016937
31.59	-0.003357	0.073395	0.00473	-0.002899	0.000763	0.021973	-0.038452	0.000153	0.10025	0.006714	-0.042725	0.009155	-0.081482	-0.000458	0.033264	-0.017548	0.007782	-0.066833	-0.25787	-0.034027	0.068665	-0.030365	-0.097656	0.017395	0.10696	-0.004425	-0.93048	-0.007782	0.32425	-0.001831	0.000916	-0.010834
31.591	-0.003052	0.043945	0.018921	-0.007324	-0.014343	0.016174	-0.066986	0.000305	0.082092	0.011444	-0.019836	0.007324	-0.079346	-0.028992	0.009766	-0.007324	0.002899	-0.082245	-0.12528	-0.053558	0.026855	-0.015411	0.12497	-0.05722	0.025787	-0.010376	-0.67734	-0.001373	-0.44662	0.12054	-0.000305	-0.004883
31.592	0.001526	0.053101	0.007019	0	-0.021515	-0.008392	-0.037231	-0.002747	0.075531	0.014648	-0.010681	0.011139	-0.063629	0.003815	0.014954	-0.021667	0.005951	-0.036316	-0.054321	-0.015106	0.005798	0.01297	0.15839	-0.12878	-0.022278	-0.014343	-0.32028	-0.000305	-0.041656	0.12054	0.000763	-0.009308
31.593	-0.00473	0.044708	-0.089569	0.001678	0.007782	-0.037384	-0.039368	0.00473	0.072327	-0.014954	0.050049	0.006561	-0.064545	-0.010529	0.19257	-0.013885	0.018921	-0.02533	-0.10696	0.03006	-0.028381	0.014648	0.21057	-0.088348	-0.084229	-0.00946	-0.17136	-0.005188	0.47821	0.13886	0.004883	-0.012207
31.594	0.000763	0.019531	-0.040283	-0.013733	0.030975	-0.031128	-0.053406	-0.000916	0.075531	-0.026855	-0.030823	0.000916	-0.057373	-0.088654	0.065765	-0.020599	0.021515	-0.035095	0.48248	0.018311	-0.046539	0.002289	0.29831	-0.024872	-0.09613	-0.010376	0.18799	-0.003052	0.069122	0.082855	-0.00473	-0.006714
31.595	0.006561	-0.0354	-0.030518	-0.021362	0.037384	-0.026093	-0.04776	-0.002899	0.075989	-0.024567	0.037994	0.008087	-0.080414	-0.087433	-0.03479	-0.011749	0.00412	-0.10468	0.033569	0.1265	0.075226	-0.007172	0.31967	-0.11185	-0.16174	-0.016327	0.41397	-0.003052	0.35889	0.10605	-0.00061	-0.010986
31.596	0.016632	-0.018005	-0.06546	-0.009155	0.010529	-0.018616	-0.053558	-0.009003	0.078125	-0.025635	0.017548	-0.001984	-0.074921	-0.022888	-0.048065	-0.012207	-0.001068	-0.069275	-0.37079	0.088806	0.050049	-0.014954	0.2832	-0.1033	-0.12604	-0.019836	0.52902	-0.003204	-0.056763	0.14786	-0.001526	-0.013733
31.597	0.02533	-0.000153	-0.050507	0.00473	-0.028839	-0.056	-0.050049	-0.00061	0.075684	-0.027313	0.002441	0.010376	-0.053253	-0.044403	-0.042877	-0.021667	-0.007782	0.069733	-0.050812	0.032196	0.00885	0.006256	0.13351	0.017853	-0.11398	-0.012817	0.5867	-0.001984	-0.12878	0.005646	-0.001068	-0.009766
31.598	0.02533	-0.026855	-0.038452	-0.002289	-0.001831	-0.077362	-0.034637	-0.003815	0.073547	-0.035858	-0.001373	0.006256	-0.058441	-0.1416	-0.016785	-0.021973	0.009613	0.071259	-0.29434	0.069733	0.011902	-0.002136	-0.088348	-0.046692	0.020752	0.00473	0.7547	0.000305	0.11658	-0.16098	-0.001831	-0.006714
